<svg width="200" height="200" viewBox="0 0 200 200" fill="none" xmlns="http://www.w3.org/2000/svg">
<path d="M63.7119 103.913C67.8539 103.913 71.2179 100.57 71.2179 96.463C71.2179 92.347 67.8539 89.001 63.7119 89.001C59.5739 89.001 56.2099 92.347 56.2099 96.463C56.2099 100.57 59.5739 103.913 63.7119 103.913ZM63.7119 92.191C66.0909 92.191 68.0259 94.108 68.0259 96.462C68.0259 98.81 66.0899 100.721 63.7119 100.721C61.3339 100.721 59.4009 98.81 59.4009 96.462C59.4009 94.108 61.3339 92.191 63.7119 92.191Z" fill="#525A62"/>
<path d="M128.813 96.463C128.813 100.57 132.174 103.913 136.309 103.913C140.451 103.913 143.818 100.57 143.818 96.463C143.818 92.347 140.451 89.001 136.309 89.001C132.174 89.001 128.813 92.347 128.813 96.463ZM140.626 96.463C140.626 98.811 138.69 100.722 136.309 100.722C133.933 100.722 132.001 98.811 132.001 96.463C132.001 94.109 133.933 92.192 136.309 92.192C138.69 92.191 140.626 94.108 140.626 96.463Z" fill="#525A62"/>
<path d="M128.877 126.668L102.27 100.061L144.412 57.913L149.172 62.676L160.539 39.524L137.38 50.887L142.154 55.656L100.011 97.804L57.8509 55.65L62.6169 50.887L39.4619 39.522L50.8289 62.668L55.5949 57.905L97.7549 100.059L71.1139 126.701L56.8189 130.538L39.6069 147.747L50.6069 149.471L52.3379 160.477L69.5539 143.267L73.3859 128.943L100.011 102.317L126.646 128.952L130.481 143.237L147.693 160.447L149.417 149.447L160.416 147.712L143.213 130.506L128.877 126.668ZM148.275 57.264L146.666 55.656L151.371 50.948L148.275 57.264ZM142.797 51.785L149.141 48.669L144.412 53.398L142.797 51.785ZM55.5949 53.392L50.8799 48.678L57.2049 51.785L55.5949 53.392ZM51.7269 57.26L48.6179 50.929L53.3389 55.65L51.7269 57.26ZM58.4739 133.399L66.5999 131.218L59.9879 137.827L54.8449 137.027L58.4739 133.399ZM46.2999 145.567L52.0549 139.819L57.1969 140.622L51.5299 146.286C51.5059 146.31 51.4969 146.349 51.4689 146.377L46.2999 145.567ZM53.7039 148.598C53.7319 148.574 53.7629 148.568 53.7859 148.543L59.3069 143.022L60.1169 148.188L54.5199 153.785L53.7039 148.598ZM66.6909 141.615L62.9109 145.394L62.0979 140.231L68.8739 133.454L66.6909 141.615ZM141.56 133.363L145.34 137.142L140.171 137.955L133.388 131.179L141.56 133.363ZM131.161 133.461L137.773 140.074L136.967 145.216L133.341 141.585L131.161 133.461ZM139.765 148.009L140.569 142.864L146.226 148.524C146.256 148.555 146.292 148.561 146.323 148.586L145.513 153.755L139.765 148.009ZM148.537 146.356C148.518 146.328 148.507 146.293 148.482 146.268L142.964 140.749L148.13 139.936L153.727 145.536L148.537 146.356Z" fill="#525A62"/>
<rect x="2.5" y="2.5" width="195" height="195" rx="97.5" stroke="#525A62" stroke-width="5"/>
</svg>
