<svg width="200" height="200" viewBox="0 0 200 200" fill="none" xmlns="http://www.w3.org/2000/svg">
<path d="M151.842 134.461C149.591 131.515 144.362 131.275 138.263 131.275L134.512 131.285C132.905 131.285 131.029 131.269 129.3 131.155C120.365 130.557 111.073 122.794 106.33 118.22C104.083 116.038 106.227 92.419 111.014 66.645L111.114 66.111L110.955 65.593C110.889 65.377 104.093 44 83.138 44C61.777 44 59.61 65.974 59.59 66.195L59.57 66.416L59.607 66.744C59.961 69.938 63.067 98.127 63.218 104.223C63.352 110.32 60.409 128.712 59.614 133.302C58.834 137.753 64.378 146.906 66.817 149.668C68.813 151.917 74.695 153.01 84.8 153.01C85.673 153.01 86.196 152.998 86.197 152.998L88.051 152.957L88.333 151.124C88.604 149.372 89.073 148.685 89.232 148.494L89.587 148.327L90.754 146.556C91.349 146.91 92.048 147.345 92.918 147.889C98.332 151.272 107.394 156.933 116.358 156.933H116.36C116.938 156.933 117.509 156.91 118.057 156.864C130.034 155.858 150.262 147.918 152.598 139.425C153.261 137.01 152.552 135.393 151.842 134.461ZM63.97 134.063C64.008 133.839 67.801 111.542 67.637 104.121C67.479 97.715 64.398 69.834 64.015 66.382C64.251 64.293 66.596 48.424 83.137 48.424C99.294 48.424 105.398 63.108 106.564 66.403C103.804 81.36 98.027 116.325 103.256 121.399C109.584 127.501 119.19 134.912 129.007 135.57C130.885 135.692 132.843 135.709 134.513 135.709L138.264 135.699C140.714 135.699 147.221 135.699 148.329 137.149C148.481 137.346 148.484 137.719 148.337 138.258C146.787 143.891 128.748 151.529 117.691 152.459C117.247 152.496 116.787 152.516 116.325 152.516C108.672 152.516 100.367 147.328 95.405 144.229L95.265 144.141C93.278 142.899 91.841 142.002 90.78 141.607L89.132 140.994L86.472 145.029C85.814 145.566 84.955 146.608 84.374 148.591C75.655 148.557 70.799 147.494 70.129 146.738C67.252 143.484 63.626 136.022 63.97 134.063Z" fill="#525A62"/>
<rect x="2.5" y="2.5" width="195" height="195" rx="97.5" stroke="#525A62" stroke-width="5"/>
</svg>
