<svg width="200" height="200" viewBox="0 0 200 200" fill="none" xmlns="http://www.w3.org/2000/svg">
<path d="M68.68 115.051C78.924 148.518 98.666 171.205 98.865 171.43L100.029 172.756L101.182 171.42C123.894 145.122 131.31 115.263 131.381 114.964L131.843 113.066H68.072L68.68 115.051ZM100.035 151.641C96.631 147.416 86.879 134.462 79.308 116.138H120.985C117.244 125.482 110.641 138.955 100.035 151.641ZM72.242 116.138H75.988C85.447 139.593 98.731 154.891 98.865 155.044L100.029 156.369L101.182 155.034C113.1 141.234 120.309 126.326 124.286 116.138H127.874C125.674 123.702 117.922 146.72 100.034 168.031C96.148 163.223 81.004 143.386 72.242 116.138Z" fill="#525A62"/>
<path d="M156.338 66.711C151.98 66.711 146.195 68.054 138.873 69.752C128.067 72.259 114.621 75.379 99.979 75.379C85.336 75.379 71.888 72.259 61.08 69.752C53.757 68.053 47.973 66.711 43.616 66.711C37.898 66.711 35 69.291 35 74.379C35 80.299 38.856 85.944 46.151 90.704C52.974 95.155 62.5 98.655 73.697 100.826L74.434 100.969L75.008 100.485C78.402 97.62 88.669 95.619 99.979 95.619C111.282 95.619 121.552 97.62 124.955 100.485L125.528 100.969L126.266 100.826C137.459 98.655 146.982 95.155 153.804 90.704C161.099 85.944 164.954 80.299 164.954 74.379C164.956 69.291 162.057 66.711 156.338 66.711ZM156.338 69.852C160.382 69.852 161.816 71.038 161.816 74.379C161.816 84.188 147.907 93.294 126.359 97.607C121.924 94.486 111.624 92.478 99.98 92.478C88.33 92.478 78.031 94.486 73.603 97.607C52.052 93.294 38.14 84.189 38.14 74.379C38.14 71.037 39.574 69.852 43.617 69.852C47.611 69.852 53.524 71.224 60.372 72.812C71.334 75.355 84.976 78.52 99.98 78.52C114.978 78.52 128.62 75.356 139.583 72.813C146.429 71.224 152.341 69.852 156.338 69.852Z" fill="#525A62"/>
<path d="M99.98 73.588C108.498 73.588 117.425 72.583 128.075 70.428L129.556 70.128L129.313 68.636C126.932 54.079 122.109 36.728 112.645 36.728C112.241 36.728 111.83 36.76 111.424 36.825C104.763 37.866 101.531 38.625 99.98 39.091C98.422 38.625 95.187 37.865 88.536 36.826C88.127 36.761 87.714 36.728 87.308 36.728C77.832 36.728 73.015 54.08 70.642 68.636L70.397 70.129L71.879 70.428C82.543 72.583 91.472 73.588 99.98 73.588ZM87.308 39.868C87.549 39.868 87.798 39.888 88.049 39.927C95.558 41.103 98.432 41.871 99.476 42.225L99.98 42.395L100.483 42.225C101.529 41.871 104.404 41.102 111.912 39.927C112.159 39.888 112.406 39.868 112.645 39.868C118.057 39.868 122.902 49.983 125.961 67.646C116.168 69.555 107.9 70.446 99.98 70.446C92.068 70.446 83.797 69.555 73.993 67.645C77.044 49.983 81.889 39.868 87.308 39.868Z" fill="#525A62"/>
<path d="M68.68 115.051C78.924 148.518 98.666 171.205 98.865 171.43L100.029 172.756L101.182 171.42C123.894 145.122 131.31 115.263 131.381 114.964L131.843 113.066H68.072L68.68 115.051ZM100.035 151.641C96.631 147.416 86.879 134.462 79.308 116.138H120.985C117.244 125.482 110.641 138.955 100.035 151.641ZM72.242 116.138H75.988C85.447 139.593 98.731 154.891 98.865 155.044L100.029 156.369L101.182 155.034C113.1 141.234 120.309 126.326 124.286 116.138H127.874C125.674 123.702 117.922 146.72 100.034 168.031C96.148 163.223 81.004 143.386 72.242 116.138Z" stroke="#525A62"/>
<path d="M156.338 66.711C151.98 66.711 146.195 68.054 138.873 69.752C128.067 72.259 114.621 75.379 99.979 75.379C85.336 75.379 71.888 72.259 61.08 69.752C53.757 68.053 47.973 66.711 43.616 66.711C37.898 66.711 35 69.291 35 74.379C35 80.299 38.856 85.944 46.151 90.704C52.974 95.155 62.5 98.655 73.697 100.826L74.434 100.969L75.008 100.485C78.402 97.62 88.669 95.619 99.979 95.619C111.282 95.619 121.552 97.62 124.955 100.485L125.528 100.969L126.266 100.826C137.459 98.655 146.982 95.155 153.804 90.704C161.099 85.944 164.954 80.299 164.954 74.379C164.956 69.291 162.057 66.711 156.338 66.711ZM156.338 69.852C160.382 69.852 161.816 71.038 161.816 74.379C161.816 84.188 147.907 93.294 126.359 97.607C121.924 94.486 111.624 92.478 99.98 92.478C88.33 92.478 78.031 94.486 73.603 97.607C52.052 93.294 38.14 84.189 38.14 74.379C38.14 71.037 39.574 69.852 43.617 69.852C47.611 69.852 53.524 71.224 60.372 72.812C71.334 75.355 84.976 78.52 99.98 78.52C114.978 78.52 128.62 75.356 139.583 72.813C146.429 71.224 152.341 69.852 156.338 69.852Z" stroke="#525A62"/>
<path d="M99.98 73.588C108.498 73.588 117.425 72.583 128.075 70.428L129.556 70.128L129.313 68.636C126.932 54.079 122.109 36.728 112.645 36.728C112.241 36.728 111.83 36.76 111.424 36.825C104.763 37.866 101.531 38.625 99.98 39.091C98.422 38.625 95.187 37.865 88.536 36.826C88.127 36.761 87.714 36.728 87.308 36.728C77.832 36.728 73.015 54.08 70.642 68.636L70.397 70.129L71.879 70.428C82.543 72.583 91.472 73.588 99.98 73.588ZM87.308 39.868C87.549 39.868 87.798 39.888 88.049 39.927C95.558 41.103 98.432 41.871 99.476 42.225L99.98 42.395L100.483 42.225C101.529 41.871 104.404 41.102 111.912 39.927C112.159 39.888 112.406 39.868 112.645 39.868C118.057 39.868 122.902 49.983 125.961 67.646C116.168 69.555 107.9 70.446 99.98 70.446C92.068 70.446 83.797 69.555 73.993 67.645C77.044 49.983 81.889 39.868 87.308 39.868Z" stroke="#525A62"/>
<rect x="2.5" y="2.5" width="195" height="195" rx="97.5" stroke="#525A62" stroke-width="5"/>
</svg>
