<svg width="200" height="200" viewBox="0 0 200 200" fill="none" xmlns="http://www.w3.org/2000/svg">
<path fill-rule="evenodd" clip-rule="evenodd" d="M60.2526 109.331C57.4906 109.331 55.2426 111.576 55.2426 114.339C55.2426 117.103 57.4906 119.351 60.2526 119.351C63.0156 119.351 65.2616 117.103 65.2616 114.339C65.2616 111.578 63.0136 109.331 60.2526 109.331ZM60.2526 115.335C59.7056 115.335 59.2596 114.888 59.2596 114.339C59.2596 113.793 59.7046 113.348 60.2526 113.348C60.8006 113.348 61.2456 113.793 61.2456 114.339C61.2456 114.888 60.7996 115.335 60.2526 115.335Z" fill="#525A62"/>
<path fill-rule="evenodd" clip-rule="evenodd" d="M57.9276 91.834C60.6896 91.834 62.9376 94.082 62.9376 96.842C62.9376 99.606 60.6896 101.853 57.9276 101.853C55.1656 101.853 52.9196 99.606 52.9196 96.842C52.9196 94.082 55.1656 91.834 57.9276 91.834ZM57.9286 95.851C57.3806 95.851 56.9356 96.296 56.9356 96.842C56.9356 97.39 57.3806 97.836 57.9286 97.836C58.4766 97.836 58.9216 97.39 58.9216 96.842C58.9216 96.296 58.4766 95.851 57.9286 95.851Z" fill="#525A62"/>
<path fill-rule="evenodd" clip-rule="evenodd" d="M61.2176 74.442C58.4566 74.442 56.2096 76.69 56.2096 79.452C56.2096 82.212 58.4566 84.46 61.2176 84.46C63.9816 84.46 66.2286 82.212 66.2286 79.452C66.2276 76.69 63.9796 74.442 61.2176 74.442ZM61.2176 80.443C60.6716 80.443 60.2266 79.998 60.2266 79.452C60.2266 78.905 60.6716 78.461 61.2176 78.461C61.7656 78.461 62.2106 78.905 62.2106 79.452C62.2106 79.997 61.7656 80.443 61.2176 80.443Z" fill="#525A62"/>
<path fill-rule="evenodd" clip-rule="evenodd" d="M66.4617 64.989C66.4617 62.225 68.7087 59.979 71.4717 59.979C74.2347 59.979 76.4797 62.225 76.4797 64.989C76.4797 67.751 74.2347 69.999 71.4717 69.999C68.7087 69.999 66.4617 67.751 66.4617 64.989ZM70.4787 64.989C70.4787 65.536 70.9247 65.98 71.4717 65.98C72.0177 65.98 72.4627 65.535 72.4627 64.989C72.4627 64.443 72.0177 63.998 71.4717 63.998C70.9237 63.998 70.4787 64.443 70.4787 64.989Z" fill="#525A62"/>
<path fill-rule="evenodd" clip-rule="evenodd" d="M139.547 109.331C136.787 109.331 134.539 111.576 134.539 114.339C134.539 117.103 136.787 119.351 139.547 119.351C142.309 119.351 144.558 117.103 144.558 114.339C144.558 111.578 142.308 109.331 139.547 109.331ZM139.547 115.335C138.998 115.335 138.558 114.888 138.558 114.339C138.558 113.793 139.002 113.348 139.547 113.348C140.095 113.348 140.54 113.793 140.54 114.339C140.54 114.888 140.095 115.335 139.547 115.335Z" fill="#525A62"/>
<path fill-rule="evenodd" clip-rule="evenodd" d="M136.863 96.842C136.863 94.082 139.108 91.834 141.871 91.834C144.634 91.834 146.879 94.08 146.879 96.842C146.879 99.606 144.634 101.853 141.871 101.853C139.108 101.853 136.863 99.606 136.863 96.842ZM140.88 96.842C140.88 97.39 141.325 97.836 141.871 97.836C142.418 97.836 142.865 97.39 142.864 96.842C142.864 96.296 142.417 95.851 141.871 95.851C141.325 95.851 140.88 96.296 140.88 96.842Z" fill="#525A62"/>
<path fill-rule="evenodd" clip-rule="evenodd" d="M138.583 84.459C141.345 84.459 143.591 82.211 143.591 79.451C143.591 76.689 141.345 74.441 138.583 74.441C135.823 74.441 133.575 76.689 133.575 79.451C133.575 82.211 135.823 84.459 138.583 84.459ZM138.583 78.457C139.13 78.457 139.574 78.901 139.574 79.451C139.574 79.997 139.129 80.442 138.583 80.442C138.036 80.442 137.592 79.997 137.592 79.451C137.591 78.902 138.036 78.457 138.583 78.457Z" fill="#525A62"/>
<path fill-rule="evenodd" clip-rule="evenodd" d="M123.319 64.989C123.319 62.225 125.566 59.979 128.33 59.979C131.088 59.979 133.337 62.225 133.338 64.989C133.338 67.751 131.089 69.999 128.33 69.999C125.567 69.999 123.319 67.751 123.319 64.989ZM127.339 64.989C127.339 65.536 127.779 65.98 128.33 65.98C128.877 65.98 129.321 65.535 129.321 64.989C129.321 64.443 128.877 63.998 128.33 63.998C127.781 63.998 127.339 64.443 127.339 64.989Z" fill="#525A62"/>
<path fill-rule="evenodd" clip-rule="evenodd" d="M151.119 78.61C141.927 43.038 104.269 42.012 100.005 42.012L99.7396 42.013L99.686 42.0116C99.5428 42.0076 99.2645 42 98.8626 42C92.2136 42 58.5406 43.764 48.5416 78.558C37.7896 115.978 64.5586 150.274 65.6986 151.712C66.1746 152.315 70.4966 157.618 75.5776 157.618C77.1666 157.618 79.4896 157.078 81.5526 154.501C85.9596 148.989 84.1056 142.945 82.5466 140.574C82.3576 140.265 63.7526 109.322 72.0156 86.777C72.2516 86.034 78.0456 68.599 99.8336 68.599L100.157 68.595C103.518 68.595 120.642 69.472 127.511 86.862L127.514 86.8708C127.613 87.1208 129.722 92.4241 129.511 101.477C129.316 110.015 126.963 123.733 116.873 140.553L116.791 140.679C116.609 140.977 112.41 148.042 117.907 154.913C119.412 156.726 121.401 157.684 123.659 157.684C128.014 157.684 132.301 154.124 134.044 151.791L134.27 151.444C134.32 151.372 134.397 151.259 134.498 151.111C140.505 142.263 159.462 110.894 151.119 78.61ZM131.175 149.602C131.095 149.717 131.027 150.073 130.969 150.376C130.919 150.634 130.877 150.854 130.842 150.854H130.84L130.764 150.225C129.482 151.94 126.209 154.044 123.656 154.044C122.589 154.044 121.742 153.437 121.016 152.565C117.327 147.953 120.102 143.06 120.209 142.888L120.3 142.698C140.738 108.606 131.603 86.003 131.227 85.121C123.421 65.358 103.973 64.1 100.154 64.1H99.7306C75.0186 64.1 68.2456 85.121 68.2106 85.242C59.3176 109.502 78.2996 141.208 79.1486 142.6C79.1786 142.647 82.1176 147.297 78.4136 151.928C77.5446 153.014 76.6176 153.573 75.5746 153.573C72.9066 153.573 69.8146 150.426 68.8466 149.205C68.5776 148.868 42.2116 115.113 52.3986 79.66C61.6016 47.634 92.7156 46.015 98.8586 46.015C99.2399 46.015 99.4846 46.0237 99.5736 46.0269L99.5994 46.0278L99.6096 46.028L99.6816 46.033L100.002 46.032C103.947 46.032 138.789 47.348 147.228 79.992C155.151 110.637 136.944 141.109 131.175 149.602Z" fill="#525A62"/>
<rect x="2.5" y="2.5" width="195" height="195" rx="97.5" stroke="#525A62" stroke-width="5"/>
</svg>
