<svg width="16" height="16" viewBox="0 0 16 16" fill="none" xmlns="http://www.w3.org/2000/svg">
<g clip-path="url(#clip0_2543_2321)">
<g clip-path="url(#clip1_2543_2321)">
<path d="M15.1172 0H0.882759C0.395225 0 0 0.395225 0 0.882759V15.1172C0 15.6048 0.395225 16 0.882759 16H8.55172V9.81241H6.46897V7.39035H8.55172V5.60828C8.55172 3.54207 9.81517 2.41655 11.6579 2.41655C12.2789 2.4152 12.8995 2.44651 13.5172 2.51034V4.67035H12.2483C11.2441 4.67035 11.0483 5.14483 11.0483 5.84552V7.38759H13.4483L13.1366 9.80966H11.0345V16H15.1172C15.6048 16 16 15.6048 16 15.1172V0.882759C16 0.395225 15.6048 0 15.1172 0Z" fill="#4267B2"/>
<path d="M11.0345 16V9.81241H13.1228L13.4345 7.39035H11.0345V5.84828C11.0345 5.14759 11.2303 4.6731 12.2345 4.6731H13.5172V2.51035C12.8986 2.44641 12.2771 2.4151 11.6552 2.41655C9.80965 2.41655 8.55172 3.54207 8.55172 5.60828V7.39035H6.46896V9.81241H8.55172V16H11.0345Z" fill="white"/>
</g>
</g>
<defs>
<clipPath id="clip0_2543_2321">
<rect width="16" height="16" fill="white"/>
</clipPath>
<clipPath id="clip1_2543_2321">
<rect width="16" height="16" fill="white"/>
</clipPath>
</defs>
</svg>
