<svg width="14" height="20" viewBox="0 0 14 20" fill="none" xmlns="http://www.w3.org/2000/svg">
<g clip-path="url(#clip0_2543_1591)">
<mask id="mask0_2543_1591" style="mask-type:alpha" maskUnits="userSpaceOnUse" x="-1" y="0" width="15" height="20">
<path d="M6.77346 9.86306C5.2547 9.86306 4.02367 8.58806 4.02367 7.01556C4.02367 5.44256 5.2547 4.16756 6.77346 4.16756C8.29222 4.16756 9.52277 5.44256 9.52277 7.01556C9.52277 8.58806 8.29222 9.86306 6.77346 9.86306ZM6.77346 6.10352e-05C3.03257 6.10352e-05 -0.00012207 3.14106 -0.00012207 7.01556C-0.00012207 11.9891 6.77346 20.0001 6.77346 20.0001C6.77346 20.0001 13.5466 11.9891 13.5466 7.01556C13.5466 3.14106 10.5144 6.10352e-05 6.77346 6.10352e-05Z" fill="white"/>
</mask>
<g mask="url(#mask0_2543_1591)">
<path d="M6.77346 9.86306C5.2547 9.86306 4.02367 8.58806 4.02367 7.01556C4.02367 5.44256 5.2547 4.16756 6.77346 4.16756C8.29222 4.16756 9.52277 5.44256 9.52277 7.01556C9.52277 8.58806 8.29222 9.86306 6.77346 9.86306ZM6.77346 6.10352e-05C3.03257 6.10352e-05 -0.00012207 3.14106 -0.00012207 7.01556C-0.00012207 11.9891 6.77346 20.0001 6.77346 20.0001C6.77346 20.0001 13.5466 11.9891 13.5466 7.01556C13.5466 3.14106 10.5144 6.10352e-05 6.77346 6.10352e-05Z" fill="white"/>
<path d="M16.6552 -1H-4.34485V21H16.6552V-1Z" fill="white"/>
</g>
</g>
<defs>
<clipPath id="clip0_2543_1591">
<rect width="13.5467" height="20" fill="white"/>
</clipPath>
</defs>
</svg>
