<svg width="16" height="16" viewBox="0 0 16 16" fill="none" xmlns="http://www.w3.org/2000/svg">
<g clip-path="url(#clip0_2543_2445)">
<g clip-path="url(#clip1_2543_2445)">
<path fill-rule="evenodd" clip-rule="evenodd" d="M3.5205 0H12.4795C14.413 0 16 1.587 16 3.5205V12.471C16 14.4125 14.413 16 12.4795 16H3.5205C1.587 16 0 14.4125 0 12.471V3.5205C0 1.587 1.587 0 3.5205 0ZM13.4455 10.3455V5.654C13.4455 3.945 12.055 2.5545 10.346 2.5545H5.6545C3.9455 2.5545 2.555 3.945 2.555 5.654V10.3455C2.555 12.0545 3.9455 13.445 5.6545 13.445H10.346C12.0545 13.4455 13.4455 12.0545 13.4455 10.3455ZM10.3455 3.488C11.54 3.488 12.5115 4.4595 12.5115 5.6545V10.346C12.5115 11.5405 11.54 12.512 10.3455 12.512H5.654C4.4595 12.512 3.4875 11.5405 3.4875 10.346V5.6545C3.4875 4.46 4.459 3.488 5.654 3.488H10.3455ZM10.7885 8C10.7885 6.4625 9.5375 5.2115 8 5.2115C6.4625 5.2115 5.2115 6.4625 5.2115 8C5.2115 9.5375 6.4625 10.7885 8 10.7885C9.5375 10.7885 10.7885 9.5375 10.7885 8ZM9.855 8C9.855 9.023 9.023 9.855 8 9.855C6.977 9.855 6.145 9.023 6.145 8C6.145 6.977 6.977 6.145 8 6.145C9.023 6.145 9.855 6.977 9.855 8ZM10.908 4.3815C10.538 4.3815 10.2375 4.682 10.2375 5.052C10.2375 5.422 10.538 5.722 10.908 5.722C11.278 5.722 11.578 5.422 11.578 5.052C11.578 4.682 11.2785 4.3815 10.908 4.3815Z" fill="url(#paint0_linear_2543_2445)"/>
</g>
</g>
<defs>
<linearGradient id="paint0_linear_2543_2445" x1="7.99975" y1="0.27025" x2="7.99975" y2="15.5456" gradientUnits="userSpaceOnUse">
<stop stop-color="#FEC053"/>
<stop offset="0.3273" stop-color="#F2203E"/>
<stop offset="0.6485" stop-color="#B729A8"/>
<stop offset="1" stop-color="#5342D6"/>
</linearGradient>
<clipPath id="clip0_2543_2445">
<rect width="16" height="16" fill="white"/>
</clipPath>
<clipPath id="clip1_2543_2445">
<rect width="16" height="16" fill="white"/>
</clipPath>
</defs>
</svg>
