<svg width="40" height="30" viewBox="0 0 40 30" fill="none" xmlns="http://www.w3.org/2000/svg">
<rect x="0.5" y="0.5" width="39" height="29" fill="#525A62"/>
<g clip-path="url(#clip0_2543_2298)">
<mask id="mask0_2543_2298" style="mask-type:alpha" maskUnits="userSpaceOnUse" x="6" y="8" width="30" height="14">
<path d="M6 8H36V22H6V8Z" fill="white"/>
</mask>
<g mask="url(#mask0_2543_2298)">
<path fill-rule="evenodd" clip-rule="evenodd" d="M19.9464 16.8625C19.9464 16.8625 19.9326 17.5621 18.6528 17.83C18.6528 17.83 17.937 18.0109 17.2485 17.83C17.2485 17.83 15.4977 16.8002 17.2485 15.5447C17.2485 15.5447 17.2875 15.533 17.3553 15.5175C17.289 16.0573 17.2056 17.1268 17.5518 17.3849C17.5518 17.3849 17.6199 17.5692 17.7306 17.3868C17.7306 17.3868 17.4465 16.3609 17.832 15.4231C18.2025 15.3666 18.6768 15.3296 19.0383 15.4328C19.0383 15.4344 20.112 15.6 19.9464 16.8625ZM35.5941 8.71998H34.9689C34.9212 8.38791 34.7421 8.3931 34.7421 8.3931C34.4931 8.2486 33.5817 8.06195 33.5817 8.06195C33.2541 8.10869 33.1431 8.38791 33.1041 8.71998H24.7398C24.7023 8.71998 24.5859 8.80063 24.5859 8.80949V8.73525C24.5859 8.73525 24.7263 8.27213 23.7753 8.1594L17.7036 8.00421C17.7036 8.00421 17.0631 7.90554 16.7745 8.66346C16.7745 8.66346 16.0332 9.18127 15.2082 8.63444C15.2082 8.63444 14.2872 7.95625 13.7097 8.00299C13.7097 8.00299 13.3248 7.97672 13.4622 8.3265C13.4622 8.3265 14.5362 8.38272 14.8389 9.47668C14.8389 9.47668 15.0573 9.85488 15.354 10.0648C15.354 10.0648 15.3801 10.3736 15.2679 10.6397C15.2679 10.6397 15.0906 11.2711 15.2679 11.8733C15.2679 11.8733 14.5086 12.0972 14.3025 12.9801C14.3025 12.9801 13.3794 12.9941 12.6099 13.1209C12.6099 13.1209 10.8339 13.8067 9.4437 15.5028C9.4437 15.5028 8.1423 17.4375 7.3716 19.3294C7.3716 19.3294 6.3258 21.7076 6 21.8894V22H12.5931C12.5931 22 11.2059 17.0871 14.8125 16.247C14.8125 16.247 15.7899 16.2106 16.134 17.1922C16.4784 18.1734 17.3445 18.2189 17.6076 18.2464C17.8686 18.2761 19.5201 18.2761 20.0982 17.4625C20.0982 17.4625 20.3328 16.9597 20.3466 16.6802C20.3466 16.6802 20.388 15.852 20.5533 15.6699C20.5533 15.6699 20.7735 15.2086 20.9673 15.1655C20.9673 15.1655 21.9438 15.055 22.302 14.9984C22.302 14.9984 22.5093 14.9706 22.5363 14.7177C22.5363 14.7177 23.4447 14.6056 23.6523 14.2408C23.6523 14.2408 23.8587 14.0869 24.1071 12.7555C24.1071 12.7555 24.3138 12.2918 24.5328 12.095C24.5328 12.095 24.6411 11.7083 24.6399 11.7083H33.6345C33.6504 11.7083 33.7227 12.395 34.0338 12.395C34.0338 12.395 34.4739 12.3718 34.4628 11.7083H35.4084C35.6367 11.7083 35.6724 11.4938 35.6724 11.2601V10.622C35.6724 10.4756 35.6679 10.3464 35.5569 10.2694C35.7663 10.2499 36 10.0696 36 9.84999V9.21182C35.997 8.97812 35.8224 8.71998 35.5941 8.71998Z" fill="white"/>
</g>
</g>
<rect x="0.5" y="0.5" width="39" height="29" stroke="white"/>
<defs>
<clipPath id="clip0_2543_2298">
<rect width="30" height="14" fill="white" transform="translate(6 8)"/>
</clipPath>
</defs>
</svg>
