<svg width="40" height="30" viewBox="0 0 40 30" fill="none" xmlns="http://www.w3.org/2000/svg">
<rect width="40" height="30" fill="white"/>
<path d="M5.85364 8H35.6718V22.25H5.85364V8Z" fill="white"/>
<path fill-rule="evenodd" clip-rule="evenodd" d="M19.7155 17.0208C19.7155 17.0208 19.7018 17.7329 18.4298 18.0056C18.4298 18.0056 17.7183 18.1897 17.034 18.0056C17.034 18.0056 15.2938 16.9574 17.034 15.6794C17.034 15.6794 17.0727 15.6676 17.1401 15.6517C17.0742 16.2012 16.9913 17.2898 17.3354 17.5525C17.3354 17.5525 17.4031 17.74 17.5131 17.5544C17.5131 17.5544 17.2308 16.5102 17.6139 15.5556C17.9822 15.4981 18.4536 15.4605 18.8129 15.5656C18.8129 15.5671 19.8801 15.7357 19.7155 17.0208ZM35.2684 8.73283H34.647C34.5996 8.39484 34.4215 8.40012 34.4215 8.40012C34.174 8.25304 33.2682 8.06306 33.2682 8.06306C32.9426 8.11063 32.8322 8.39484 32.7935 8.73283H24.4799C24.4426 8.73283 24.3269 8.81492 24.3269 8.82394V8.74838C24.3269 8.74838 24.4664 8.27699 23.5212 8.16225L17.4863 8.00429C17.4863 8.00429 16.8497 7.90385 16.5628 8.67531C16.5628 8.67531 15.826 9.20236 15.006 8.64577C15.006 8.64577 14.0906 7.95547 13.5166 8.00304C13.5166 8.00304 13.134 7.9763 13.2706 8.33234C13.2706 8.33234 14.3381 8.38955 14.639 9.50305C14.639 9.50305 14.856 9.888 15.1509 10.1016C15.1509 10.1016 15.1769 10.416 15.0654 10.6868C15.0654 10.6868 14.8891 11.3296 15.0654 11.9424C15.0654 11.9424 14.3107 12.1704 14.1058 13.069C14.1058 13.069 13.1883 13.0833 12.4235 13.2123C12.4235 13.2123 10.6582 13.9104 9.27647 15.6368C9.27647 15.6368 7.98295 17.606 7.21692 19.5317C7.21692 19.5317 6.17746 21.9524 5.85364 22.1374V22.25H12.4068C12.4068 22.25 11.028 17.2494 14.6127 16.3943C14.6127 16.3943 15.5842 16.3572 15.9262 17.3563C16.2685 18.3551 17.1294 18.4014 17.3909 18.4294C17.6503 18.4596 19.2918 18.4596 19.8664 17.6315C19.8664 17.6315 20.0996 17.1197 20.1133 16.8352C20.1133 16.8352 20.1544 15.9922 20.3187 15.8069C20.3187 15.8069 20.5376 15.3373 20.7302 15.2935C20.7302 15.2935 21.7008 15.1809 22.0568 15.1234C22.0568 15.1234 22.2629 15.0951 22.2897 14.8377C22.2897 14.8377 23.1926 14.7235 23.399 14.3523C23.399 14.3523 23.6041 14.1955 23.851 12.8404C23.851 12.8404 24.0564 12.3684 24.2741 12.1682C24.2741 12.1682 24.3818 11.7745 24.3806 11.7745H33.3207C33.3365 11.7745 33.4083 12.4735 33.7175 12.4735C33.7175 12.4735 34.155 12.4499 34.1439 11.7745H35.0838C35.3107 11.7745 35.3462 11.5562 35.3462 11.3184V10.6688C35.3462 10.5198 35.3417 10.3883 35.2314 10.31C35.4395 10.2901 35.6718 10.1066 35.6718 9.88303V9.23346C35.6688 8.99558 35.4953 8.73283 35.2684 8.73283Z" fill="#515A60"/>
</svg>
