<svg width="30" height="32" viewBox="0 0 30 32" fill="none" xmlns="http://www.w3.org/2000/svg">
<mask id="mask0_694_65" style="mask-type:alpha" maskUnits="userSpaceOnUse" x="0" y="0" width="30" height="32">
<path d="M0.828613 0H29.1715V32H0.828613V0Z" fill="white"/>
</mask>
<g mask="url(#mask0_694_65)">
<path fill-rule="evenodd" clip-rule="evenodd" d="M28.0314 20.9309C27.3067 20.528 26.4202 20.528 25.7755 20.9309L22.9587 16.001L25.7755 11.071C26.4202 11.4742 27.3067 11.4742 28.0314 11.071C29.1586 10.425 29.4797 9.05184 28.8375 7.92C28.1915 6.78816 26.8233 6.46624 25.6971 7.11168C24.971 7.51456 24.5693 8.3232 24.5693 9.1312H18.9325L16.1157 4.20288C16.7598 3.79936 17.2419 3.07168 17.2419 2.26368C17.2419 0.97088 16.1941 0 14.9863 0C13.699 0 12.731 1.05024 12.731 2.26368C12.731 3.07168 13.2156 3.88 13.8607 4.20288L11.042 9.1312H5.40645C5.40645 8.3232 5.00373 7.59616 4.27864 7.11168C3.15211 6.46528 1.78293 6.86976 1.13883 7.92C0.494738 9.05184 0.897139 10.425 1.94395 11.071C2.66808 11.4742 3.55451 11.4742 4.19765 11.071L7.01637 16.001L4.27864 20.9309C3.63455 20.5274 2.74907 20.5274 2.02399 20.9309C0.896501 21.5757 0.575728 22.9507 1.21887 24.08C1.86392 25.2138 3.23119 25.5334 4.35868 24.8896C5.08344 24.488 5.48584 23.679 5.48584 22.8675H11.1223L13.9398 27.7984C13.2947 28.1994 12.8123 28.9322 12.8123 29.7376C12.8123 31.0304 13.8597 32 15.0679 32C16.3542 32 17.3219 30.9482 17.3219 29.7376C17.3219 28.9322 16.8382 28.1206 16.1941 27.7984L19.0141 22.8675H24.6503C24.6503 23.679 25.0511 24.4054 25.7755 24.8896C26.9017 25.5334 28.2719 25.1325 28.9156 24.08C29.4797 22.9507 29.0786 21.5757 28.0314 20.9309Z" fill="#515A60"/>
</g>
</svg>
