<svg width="16" height="16" viewBox="0 0 16 16" fill="none" xmlns="http://www.w3.org/2000/svg">
<g clip-path="url(#clip0_2543_1622)">
<g clip-path="url(#clip1_2543_1622)">
<path d="M14 16H2C0.896 16 0 15.104 0 14V2C0 0.896 0.896 0 2 0H14C15.104 0 16 0.896 16 2V14C16 15.104 15.104 16 14 16Z" fill="white"/>
<path d="M6.144 12.064C9.916 12.064 11.98 8.93597 11.98 6.22797C11.98 6.13997 11.98 6.05197 11.976 5.96397C12.376 5.67597 12.724 5.31197 13 4.89997C12.632 5.06397 12.236 5.17197 11.82 5.22397C12.244 4.97197 12.568 4.56797 12.724 4.08797C12.328 4.32397 11.888 4.49197 11.42 4.58397C11.044 4.18397 10.512 3.93597 9.924 3.93597C8.792 3.93597 7.872 4.85597 7.872 5.98797C7.872 6.14797 7.892 6.30397 7.924 6.45597C6.22 6.37197 4.708 5.55197 3.696 4.31197C3.52 4.61597 3.42 4.96797 3.42 5.34397C3.42 6.05597 3.784 6.68397 4.332 7.05197C3.996 7.03997 3.68 6.94797 3.404 6.79597C3.404 6.80397 3.404 6.81197 3.404 6.82397C3.404 7.81597 4.112 8.64797 5.048 8.83597C4.876 8.88397 4.696 8.90797 4.508 8.90797C4.376 8.90797 4.248 8.89597 4.124 8.87197C4.384 9.68797 5.144 10.28 6.04 10.296C5.336 10.848 4.452 11.176 3.492 11.176C3.328 11.176 3.164 11.168 3.004 11.148C3.908 11.724 4.988 12.064 6.144 12.064Z" fill="#525A62"/>
</g>
</g>
<defs>
<clipPath id="clip0_2543_1622">
<rect width="16" height="16" fill="white"/>
</clipPath>
<clipPath id="clip1_2543_1622">
<rect width="16" height="16" fill="white"/>
</clipPath>
</defs>
</svg>
